<svg height="173.75" viewBox="-143 145 256 111.2" width="400" xmlns="http://www.w3.org/2000/svg"><g fill="#fefefe" transform="translate(-128 -192.2)"><path d="m69.5 448.3c1.4 0 2.5-1.1 2.6-2.6l1.8-26.7-1.8-58.2c-.1-1.4-1.2-2.6-2.6-2.6s-2.5 1.1-2.6 2.6l-1.6 58.2 1.6 26.7c0 1.4 1.2 2.6 2.6 2.6z"/><path d="m58.9 448.2c1.3 0 2.3-1 2.4-2.4l2-26.9-2-56.3c-.1-1.3-1.1-2.4-2.4-2.4s-2.3 1-2.4 2.4l-1.8 56.3 1.8 26.9c.1 1.4 1.1 2.4 2.4 2.4z"/><path d="m80.1 448.3c1.5 0 2.8-1.2 2.8-2.8l1.7-26.5-1.7-56.7c0-1.6-1.3-2.8-2.8-2.8s-2.8 1.2-2.8 2.8l-1.5 56.7 1.5 26.5c0 1.5 1.3 2.8 2.8 2.8z"/><path d="m90.8 448.3c1.7 0 3-1.3 3-3l1.5-26.3-1.5-54.7c0-1.7-1.4-3-3-3-1.7 0-3 1.3-3 3l-1.4 54.7 1.4 26.3c0 1.7 1.4 3 3 3z"/><path d="m101.6 448.4c1.8 0 3.2-1.5 3.2-3.2l1.4-26.1-1.4-65c0-1.8-1.5-3.2-3.2-3.2-1.8 0-3.2 1.4-3.2 3.2l-1.2 65 1.2 26.1c0 1.7 1.5 3.2 3.2 3.2z"/><path d="m122.2 448.4h87.3c17.4 0 31.5-14.1 31.5-31.5s-14.1-31.5-31.5-31.5c-4.3 0-8.4.9-12.2 2.4-2.5-28.4-26.3-50.6-55.3-50.6-7.1 0-14 1.4-20.1 3.8-2.4.9-3 1.9-3 3.7v99.9c-.1 2 1.4 3.6 3.3 3.8z"/><path d="m112.4 448.2c1.9 0 3.4-1.6 3.5-3.5l1.5-25.8-1.5-70.9c0-1.9-1.6-3.5-3.5-3.5s-3.4 1.6-3.5 3.5l-1.4 70.9 1.4 25.7c0 2 1.6 3.6 3.5 3.6z"/><path d="m17.6 447.6c.8 0 1.4-.6 1.5-1.5l2.6-27.1-2.6-28c-.1-.9-.7-1.5-1.5-1.5s-1.4.6-1.5 1.5l-2.3 28 2.3 27.1c0 .8.7 1.5 1.5 1.5z"/><path d="m48.5 448.3c1.2 0 2.1-.9 2.2-2.1l2.1-27.2-2.1-52c-.1-1.2-1-2.1-2.2-2.1s-2.1.9-2.2 2.1l-1.9 52 1.9 27.2c.1 1.1 1 2.1 2.2 2.1z"/><path d="m-12.1 433.9c.5 0 .9-.4 1-1l2.2-14-2.2-14.2c-.1-.6-.5-1-1-1s-1 .4-1 1l-1.9 14.3 1.9 14c0 .5.5.9 1 .9z"/><path d="m7.4 446.5c.7 0 1.2-.5 1.3-1.2l2.7-26.3-2.7-27.3c-.1-.7-.6-1.3-1.3-1.3s-1.2.5-1.3 1.3l-2.4 27.3 2.4 26.3c.1.7.6 1.2 1.3 1.2z"/><path d="m-2.6 442.5c.5 0 1-.4 1.1-1l2.9-22.5-2.9-23c-.1-.6-.5-1-1.1-1-.5 0-1 .4-1.1 1l-2.5 23 2.5 22.5c.1.5.5 1 1.1 1z"/><path d="m27.8 448c.9 0 1.6-.7 1.7-1.7l2.4-27.3-2.4-26c-.1-1-.8-1.7-1.7-1.7s-1.7.7-1.7 1.7l-2.1 26 2.1 27.3c0 1 .8 1.7 1.7 1.7z"/><path d="m38.1 448.2c1 0 1.9-.8 1.9-1.9l2.3-27.3-2.3-42.3c-.1-1.1-.9-1.9-1.9-1.9s-1.9.8-1.9 1.9l-2 42.3 2 27.3c0 1.1.8 1.9 1.9 1.9z"/></g></svg>